<?xml version="1.0" encoding="UTF-8"?>
<svg id="Calque_1" xmlns="http://www.w3.org/2000/svg" version="1.1" xmlns:xlink="http://www.w3.org/1999/xlink" viewBox="0 0 150 150">
  <!-- Generator: Adobe Illustrator 29.0.1, SVG Export Plug-In . SVG Version: 2.1.0 Build 192)  -->
  <defs>
    <style>
      .st0, .st1, .st2, .st3, .st4 {
        stroke: #0e222c;
        stroke-miterlimit: 10;
      }

      .st0, .st2, .st4 {
        stroke-width: .5px;
      }

      .st0, .st4 {
        fill: #b3cc28;
      }

      .st1, .st2 {
        fill: #fff;
      }

      .st3 {
        fill: #b3cc24;
      }

      .st4 {
        filter: url(#drop-shadow-1);
      }
    </style>
    <filter id="drop-shadow-1" x="104.5" y="70.45" width="42.43" height="51.67">
      <feOffset dx="7" dy="7"/>
      <feGaussianBlur result="blur" stdDeviation="5"/>
      <feFlood flood-color="#88bf4b" flood-opacity="1"/>
      <feComposite in2="blur" operator="in"/>
      <feComposite in="SourceGraphic"/>
    </filter>
  </defs>
  <path class="st3" d="M118.2,86.4c-30.9,5.3-61.9,10.6-92.8,15.9-4.3,1-7.1,3.8-7,6,.2,2.8,5,6,11.4,4.9,28.3-7,56.5-14,84.8-21l3.6-5.8Z"/>
  <path class="st3" d="M114.2,91.9c-34.3,8.5-68.7,17-103,25.4-4.7,1.5-7.6,4.8-7.1,7.3.6,3.1,6.4,6.2,13.5,4.5,31.1-10.1,62.2-20.3,93.2-30.4l3.4-6.8Z"/>
  <path class="st3" d="M113.9,95.6c-29.9,10.5-59.9,21-89.8,31.5-4.1,1.8-6.3,4.9-5.6,7.1.8,2.7,6.4,5.1,12.6,2.9,26.8-11.7,53.7-23.4,80.5-35.2l2.3-6.4Z"/>
  <g>
    <path class="st1" d="M40.8,24.5c.2-.7.3-1.4.3-2.2s-.2-1.4-.6-1.8c-.4-.5-.8-.7-1.2-.7s-.9.1-1.3.3-.8.5-1.2.8c-1,.8-1.5,1.7-1.5,2.6s.2,1.7.7,2.2c.5.6,1.1,1.1,1.8,1.6.7.5,1.5,1,2.3,1.5s1.6,1.2,2.3,2c1.7,1.9,2.5,4.5,2.5,7.7s-1.4,7.1-4.3,9.6c-2.7,2.4-6.1,3.6-10.2,3.6s-5.8-1.6-8.4-4.8l3.9-7.7c.5,1,1.4,1.9,2.8,2.6,1.4.8,2.4,1.2,3.1,1.2s1.3,0,1.7-.2c.5-.1.9-.3,1.3-.6.9-.6,1.3-1.4,1.3-2.3s-.3-1.7-.8-2.4c-.6-.7-1.2-1.4-2.1-2.1-.8-.7-1.7-1.3-2.6-2-1-.7-1.8-1.4-2.6-2.2-1.9-1.7-2.9-3.5-2.9-5.5s.5-3.7,1.6-5.2c1.1-1.6,2.5-3,4.1-4.1,1.6-1.2,3.4-2.1,5.4-2.8,2-.7,3.6-1,5-1s2.4.1,3.3.4c.8.2,1.6.6,2.2,1.1,1.3,1.1,2,2.7,2,4.9s0,1-.1,1.5c0,.5-.2,1-.2,1.6l-7.7,2.2Z"/>
    <path class="st1" d="M69.9,50.1c-1.7,0-3.4-.1-5.2-.1s-3.7,0-5.7.1c-.7-4.5-1.4-9.3-2.1-14.5l-1,1.1c-.2,1.1-.5,2.4-.8,3.9-.3,1.6-.6,3.1-.9,4.7-.3,1.6-.6,3.3-1,5.1l-8.6,1.3c3.7-17.3,6-30.3,6.7-38.8.8.1,1.8.2,2.8.2,1,0,2,.1,3,.2,1,0,2,.1,3.1.1,0,.1,0,.4-.2.8,0,.4-.2.8-.3,1.4-.1.6-.2,1.2-.3,1.8-.1.7-.3,1.6-.5,2.7-.2,1.1-.5,2.7-.9,4.6h.3c1-1.5,2-3.1,3-4.8,2.1-3.3,3.5-5.6,4.4-6.8,4-.3,7.5-.7,10.6-1.2-6,8.2-10.1,14-12.4,17.6.8,3.6,1.7,7,2.8,10.4,1.1,3.3,2.2,6.7,3.3,10.2Z"/>
    <path class="st1" d="M84.4,13.2c-3.9,20.1-6.4,32.6-7.2,37.5-1,0-2.6.2-5,.5s-3.6.5-3.7.5c1.1-4,2.1-8.4,3.1-13.1,2.1-10.8,3.7-18.8,4.6-24l8.3-1.3Z"/>
    <path class="st1" d="M89.5,44.2c1.3-.1,3.1-.2,5.5-.2,0,1.3.2,2.4.3,3.3.1.8.2,1.5.3,1.9,0,.4,0,.7.1.8h-1.6c-3.6,0-7.3.3-10.9.9-1.2.2-2.2.5-3.2.8.8-6.4,1.9-13.1,3.3-20.2,1.4-7.1,2.5-13,3.5-17.8l9.3-1.2c-3.2,13.6-5.1,22-5.6,25.1-.5,3.1-.9,5.3-1.1,6.5Z"/>
    <path class="st1" d="M105.2,44.2c1.3-.1,3.1-.2,5.5-.2,0,1.3.2,2.4.3,3.3.1.8.2,1.5.3,1.9,0,.4,0,.7.1.8h-1.6c-3.6,0-7.3.3-10.9.9-1.2.2-2.2.5-3.2.8.8-6.4,1.9-13.1,3.3-20.2,1.4-7.1,2.5-13,3.5-17.8l9.3-1.2c-3.2,13.6-5.1,22-5.6,25.1-.5,3.1-.9,5.3-1.1,6.5Z"/>
    <path class="st3" d="M36.4,89.5c-2.7-9.4-4-14.8-4.2-16l-.7.2c-1.1,6.4-2,11.2-2.5,14.5l-8.6,2.2c3.6-17.4,5.8-29.8,6.6-37.1,4-1.2,8.5-1.9,13.5-1.9s6,1.3,6.6,3.9c.2.8.3,1.8.3,3s-.2,2.4-.7,3.8c-.5,1.4-1.1,2.7-2,3.9-1.7,2.5-3.9,4.5-6.4,5.8,1.3,2.9,2.6,5.7,3.6,8.2,1.1,2.6,1.9,4.8,2.7,6.5l-8.3,2.9ZM36.9,58.8h-2.3c0,0-1.7,8.5-1.7,8.5,1.4-.1,3.1-1,5.2-2.6,2.2-1.7,3.3-3,3.3-4.1s-1-1.6-2.9-1.7c-.6,0-1.1,0-1.7,0Z"/>
    <path class="st3" d="M50.9,52.5c.8,0,1.7-.2,2.7-.3,1-.1,2-.2,3-.3,1,0,2-.2,3.1-.3-.9,4.3-1.6,7.6-2.1,10.1s-.9,4.5-1.2,6-.6,2.9-.8,4.1c-.6,2.6-.9,4.3-1.1,5.1-.5,2.4-.8,3.9-.8,4.6s.1,1.2.4,1.6c.3.4.7.5,1.2.5s1-.2,1.3-.7c.4-.5.7-1.1,1-1.7s.5-1.3.6-2c.1-.7.3-1.4.4-2.1.2-.7.4-1.7.6-3,.3-1.3.5-2.6.8-3.9.3-1.4.5-2.8.8-4.2.7-3.6,1.6-8.2,2.5-13.8l8-.5-.3,1.3c-.4,2.2-.9,4.7-1.4,7.6-.5,2.9-1,5.3-1.4,7.4-1.1,5.4-1.9,9.2-2.4,11.5-.5,2.3-1.2,4.1-2.2,5.5-.9,1.4-2,2.6-3.2,3.5-2.3,1.7-5,2.6-8,2.6s-3.5-.5-4.8-1.6c-1.5-1.2-2.3-2.9-2.3-4.9v-.4c0-.1,0-.6.1-1.4,0-.8.3-2.2.6-4.3.3-2.1.6-4.2,1-6.4s.8-4.5,1.2-6.7.8-4.3,1.1-6.1c.8-3.9,1.2-6.2,1.3-6.9Z"/>
    <path class="st3" d="M85.5,63.2c.2-.7.3-1.4.3-2.2s-.2-1.4-.6-1.8c-.4-.5-.8-.7-1.2-.7s-.9.1-1.3.3-.8.5-1.2.8c-1,.8-1.5,1.7-1.5,2.6s.2,1.7.7,2.2c.5.6,1.1,1.1,1.8,1.6s1.5,1,2.3,1.5,1.6,1.2,2.3,2c1.7,1.9,2.5,4.5,2.5,7.7s-1.4,7.1-4.3,9.6c-2.7,2.4-6.1,3.6-10.2,3.6s-5.8-1.6-8.4-4.8l3.9-7.7c.5,1,1.4,1.9,2.8,2.6,1.4.8,2.4,1.2,3.1,1.2s1.3,0,1.7-.2.9-.3,1.3-.6c.9-.6,1.3-1.4,1.3-2.3s-.3-1.7-.8-2.4c-.6-.7-1.2-1.4-2.1-2.1s-1.7-1.3-2.6-2-1.8-1.4-2.6-2.2c-1.9-1.7-2.9-3.5-2.9-5.5s.5-3.7,1.6-5.2c1.1-1.6,2.5-3,4.1-4.1,1.6-1.2,3.4-2.1,5.4-2.8s3.6-1,5-1,2.4.1,3.3.4c.8.2,1.6.6,2.2,1.1,1.3,1.1,2,2.7,2,4.9s0,1-.1,1.5c0,.5-.2,1-.2,1.6l-7.7,2.2Z"/>
    <path class="st3" d="M89.4,90.4c3.1-16.1,5.3-28.9,6.7-38.4l8.6-.6c-1.4,5.8-2.5,11-3.4,15.7l5.2-.6c.5-2.5.9-4.9,1.3-7.3s.9-4.8,1.5-7.3c1.4-.2,2.9-.4,4.4-.5,1.6-.1,2.6-.2,3.2-.2h.9c-1.7,5.4-3.4,13.2-5,23.2-.8,4.5-1.5,9.1-2.2,13.8l-8.3.9c.4-2.1.9-4.1,1.2-6s.7-3.7,1.1-5.6c.4-1.8.7-3.4.9-4.7l-5.2.5c-.8,4.4-1.8,9.6-3,15.5l-8.2,1.7Z"/>
  </g>
  <circle class="st2" cx="123.1" cy="98.6" r="13.3"/>
  <path class="st4" d="M127.1,74.9c-.6-.1-1.1-.3-1.7-.4-.6-.2-.9-.5-.7-1.1.2-.9.4-1.8.6-2.6.2-.6.6-.8,1.2-.7,2.5.6,4.9,1.2,7.4,1.8.7.2.9.6.8,1.3-.2.8-.4,1.6-.6,2.5-.2.7-.5.9-1.2.8-.6-.1-1.1-.3-1.8-.4-.2.7-.4,1.4-.5,2.1,0,0,.1.3.2.3,2.9,1,5.4,2.6,7.6,4.6.3-.3.6-.5.9-.8-.2-.3-.4-.6-.7-.8-.3-.4-.3-.7,0-1,.4-.3.8-.7,1.1-1,.3-.3.7-.3.9,0,1,1.2,2,2.3,3,3.5.3.3.2.7,0,.9-.4.3-.8.6-1.1,1-.4.3-.7.3-1,0-.2-.3-.4-.5-.7-.8-.3.2-.5.5-.8.7.7,1,1.4,1.9,1.9,2.9,3.4,5.8,4.1,11.9,1.9,18.1-3.1,8.9-11.1,14.6-20.5,14.5-8.1-.1-14.3-3.9-18.5-10.8-.2-.4-.5-.8-.7-1.3-.3-.5,0-1.1.4-1.3.5-.2,1,0,1.2.5,2.1,4.2,5.3,7.4,9.6,9.3,5.4,2.4,10.8,2.5,16.2,0,5.2-2.3,8.8-6.2,10.7-11.6,3.4-9.7-1.4-20.6-10.9-24.6-4.9-2.1-9.9-2.2-14.9-.2-.2,0-.3.1-.5.2-.5.2-1,0-1.2-.4-.2-.5,0-1,.5-1.2.6-.2,1.1-.4,1.7-.6,3-1,6.1-1.3,9.2-.9.3,0,.5,0,.6-.4.1-.6.3-1.1.4-1.7,0,0,0-.1,0-.2Z"/>
  <path class="st0" d="M128,82c7.7,1.9,13.3,9.5,12.6,17.9-.8,9.4-8.9,16.4-18.3,15.7-5.5-.4-9.8-2.9-13-7.5-.4-.6-.4-1.1,0-1.4.5-.3,1-.2,1.4.4,1.8,2.7,4.2,4.6,7.3,5.8,5,1.8,9.8,1.2,14.2-1.8,3.2-2.2,5.3-5.3,6.2-9.2,1.7-7.2-2.3-14.8-9.1-17.6-2.2-.9-4.5-1.3-6.9-1.1-.4,0-.8,0-.9-.5,0-.3,0-.7,0-1,.1-.2.5-.3.8-.3,1.7-.1,3.4,0,5.6.5Z"/>
  <path class="st0" d="M121.4,98s0-.2.1-.3c.6-.6.3-1.1.1-1.7-1.2-3.9-2.4-7.8-3.6-11.8-.3-.8-.1-1.3.3-1.4.5-.2.8.1,1.1,1,1.2,4.1,2.5,8.1,3.7,12.2.1.4.2.6.7.6.2,0,.5,0,.7.2.5.4.9.3,1.4.2,2.2-.7,4.4-1.4,6.7-2,.2,0,.5-.2.7-.2.5-.1.9,0,1,.5.2.4,0,.8-.6,1-1.4.4-2.8.8-4.2,1.3-1.1.3-2.1.7-3.2,1-.4.1-.6.3-.7.7-.2,1.2-1.4,1.9-2.6,1.7-1.2-.3-1.9-1.5-1.6-2.8Z"/>
</svg>